# xmcd CD database file
#
# Track frame offsets:
#	150
#	30253
#	71845
#	107674
#	142908
#	168318
#	202787
#	226269
#	258764
#
# Disc length: 4060 seconds
#
# Revision: 0
# Processed by: cddbd v1.5.1PL0 Copyright (c) Steve Scherf et al.
# Submitted via: CDex 1.51
#
DISCID=680fda09
DTITLE=Rich Perry and Harold Danko - Canções do Brasil
DYEAR=1999
DGENRE=Jazz
TTITLE0=Canto triste
TTITLE1=Cafe
TTITLE2=Beijo partido
TTITLE3=A tarde
TTITLE4=Choro das aguas
TTITLE5=Leila venha ser feliz
TTITLE6=Memoria e fado
TTITLE7=Hora e lugar
TTITLE8=Folhas secas
EXTD=YEAR: 1999
EXTT0=
EXTT1=
EXTT2=
EXTT3=
EXTT4=
EXTT5=
EXTT6=
EXTT7=
EXTT8=
PLAYORDER=
